<svg width="271" height="22" viewBox="0 0 271 22" fill="none" xmlns="http://www.w3.org/2000/svg">
<path d="M7.44 16.2L2.9 5.56C2.60667 4.88 2.4 4.33333 2.28 3.92C2.16 3.49333 2.08 3.13333 2.04 2.84C1.85333 2.85333 1.66667 2.86 1.48 2.86C1.29333 2.86 1.10667 2.86667 0.92 2.88V2H5.56L5.54 2.68C4.87333 2.72 4.47333 2.92667 4.34 3.3C4.20667 3.66 4.27333 4.17333 4.54 4.84C4.86 5.62667 5.16667 6.38667 5.46 7.12C5.75333 7.85333 6.08 8.64667 6.44 9.5C6.76 10.2467 7.06667 10.9667 7.36 11.66C7.66667 12.34 7.9 12.9067 8.06 13.36H8.1C8.24667 12.8933 8.39333 12.4467 8.54 12.02C8.7 11.5933 8.88667 11.0867 9.1 10.5C9.5 9.38 9.83333 8.43333 10.1 7.66C10.38 6.88667 10.62 6.22667 10.82 5.68C11.02 5.13333 11.1867 4.66667 11.32 4.28C11.44 3.93333 11.5467 3.64 11.64 3.4C11.7333 3.16 11.82 2.96 11.9 2.8C11.6467 2.81333 11.3933 2.82667 11.14 2.84C10.8867 2.85333 10.6267 2.86667 10.36 2.88V2H14.42V2.66C13.8333 2.68667 13.38 2.84 13.06 3.12C12.7533 3.4 12.4733 3.9 12.22 4.62C12.1933 4.68667 12.16 4.78 12.12 4.9C12.08 5.00667 12.0133 5.18667 11.92 5.44C11.8267 5.69333 11.6933 6.06667 11.52 6.56C11.3467 7.04 11.1067 7.69333 10.8 8.52C10.5067 9.34667 10.1267 10.3867 9.66 11.64C9.20667 12.8933 8.65333 14.4133 8 16.2H7.44ZM14.6534 15.4C15.0668 15.4 15.3534 15.3 15.5134 15.1C15.6734 14.8867 15.7668 14.6 15.7934 14.24C15.8201 13.8667 15.8334 13.44 15.8334 12.96V8.4C15.8334 8.18667 15.8401 7.98667 15.8534 7.8C15.8668 7.6 15.8868 7.36667 15.9134 7.1C15.6734 7.11333 15.4334 7.12667 15.1934 7.14C14.9668 7.15333 14.7334 7.16667 14.4934 7.18V6.34C15.0801 6.34 15.5334 6.31333 15.8534 6.26C16.1734 6.20667 16.4134 6.14 16.5734 6.06C16.7468 5.98 16.8801 5.89333 16.9734 5.8H17.5534V13.88C17.5534 14.1467 17.5468 14.3867 17.5334 14.6C17.5334 14.8 17.5134 15.0133 17.4734 15.24C17.6868 15.2267 17.8934 15.22 18.0934 15.22C18.3068 15.2067 18.5201 15.1933 18.7334 15.18V16H14.6534V15.4ZM16.5734 3.82C16.2934 3.82 16.0468 3.70667 15.8334 3.48C15.6201 3.25333 15.5134 2.97333 15.5134 2.64C15.5134 2.30667 15.6201 2.02667 15.8334 1.8C16.0601 1.56 16.3134 1.44 16.5934 1.44C16.9001 1.44 17.1534 1.56 17.3534 1.8C17.5668 2.02667 17.6734 2.30667 17.6734 2.64C17.6734 2.97333 17.5601 3.25333 17.3334 3.48C17.1201 3.70667 16.8668 3.82 16.5734 3.82ZM24.0784 16.06L21.2184 9.54C21.0051 9.03333 20.8384 8.6 20.7184 8.24C20.5984 7.88 20.5118 7.58 20.4584 7.34C20.4184 7.1 20.3918 6.90667 20.3784 6.76L19.5184 6.82V6H23.1984V6.6C22.7984 6.6 22.5384 6.70667 22.4184 6.92C22.3118 7.12 22.2984 7.39333 22.3784 7.74C22.4584 8.07333 22.5784 8.43333 22.7384 8.82L24.2784 12.34C24.3851 12.5667 24.4851 12.8067 24.5784 13.06C24.6851 13.3 24.7851 13.5533 24.8784 13.82H24.8984C24.9651 13.62 25.0384 13.4067 25.1184 13.18C25.2118 12.9533 25.2918 12.7333 25.3584 12.52L26.9584 8.14C27.0651 7.82 27.1784 7.54 27.2984 7.3C27.4184 7.06 27.5051 6.88 27.5584 6.76L26.2784 6.82V6H29.4384V6.6C29.1451 6.6 28.8984 6.7 28.6984 6.9C28.4984 7.1 28.3051 7.4 28.1184 7.8C27.9451 8.2 27.7384 8.7 27.4984 9.3L24.8784 16.06H24.0784ZM36.2608 16C36.2208 15.7733 36.1941 15.5733 36.1808 15.4C36.1674 15.2267 36.1474 15.0467 36.1208 14.86C35.6674 15.3133 35.1741 15.6733 34.6408 15.94C34.1208 16.1933 33.5674 16.32 32.9808 16.32C31.9674 16.32 31.2141 16.0933 30.7208 15.64C30.2274 15.1733 29.9808 14.6067 29.9808 13.94C29.9808 13.3267 30.1674 12.8 30.5408 12.36C30.9274 11.9067 31.4208 11.54 32.0208 11.26C32.6341 10.9667 33.2941 10.7533 34.0008 10.62C34.7208 10.4733 35.4141 10.4067 36.0808 10.42V9.18C36.0808 8.71333 36.0408 8.27333 35.9608 7.86C35.8808 7.44667 35.7074 7.10667 35.4408 6.84C35.1741 6.57333 34.7474 6.43333 34.1608 6.42C33.7741 6.40667 33.3741 6.48 32.9608 6.64C32.5608 6.8 32.2674 7.07333 32.0808 7.46C32.1874 7.56667 32.2541 7.69333 32.2808 7.84C32.3208 7.97333 32.3408 8.1 32.3408 8.22C32.3408 8.38 32.2741 8.56667 32.1408 8.78C32.0074 8.98 31.7741 9.07333 31.4408 9.06C31.1608 9.06 30.9474 8.96667 30.8008 8.78C30.6541 8.58 30.5808 8.34667 30.5808 8.08C30.5808 7.62667 30.7474 7.22 31.0808 6.86C31.4274 6.5 31.9008 6.21333 32.5008 6C33.1008 5.78667 33.7808 5.68 34.5408 5.68C35.6608 5.68 36.4874 5.98 37.0208 6.58C37.5541 7.16667 37.8141 8.1 37.8008 9.38C37.8008 9.87333 37.8008 10.3733 37.8008 10.88C37.8008 11.3733 37.7941 11.8733 37.7808 12.38C37.7808 12.8733 37.7808 13.3733 37.7808 13.88C37.7808 14.0933 37.7741 14.3067 37.7608 14.52C37.7474 14.7333 37.7274 14.9733 37.7008 15.24C37.9408 15.2267 38.1741 15.2133 38.4008 15.2C38.6408 15.1867 38.8808 15.1733 39.1208 15.16V16H36.2608ZM36.0808 11.1C35.6274 11.1133 35.1474 11.1733 34.6408 11.28C34.1474 11.3733 33.6874 11.52 33.2608 11.72C32.8474 11.92 32.5074 12.1867 32.2408 12.52C31.9874 12.84 31.8674 13.2333 31.8808 13.7C31.9074 14.1933 32.0674 14.5667 32.3608 14.82C32.6674 15.06 33.0274 15.18 33.4408 15.18C33.9874 15.18 34.4608 15.08 34.8608 14.88C35.2741 14.6667 35.6808 14.3733 36.0808 14C36.0674 13.8533 36.0608 13.6933 36.0608 13.52C36.0608 13.3467 36.0608 13.1667 36.0608 12.98C36.0608 12.9133 36.0608 12.7 36.0608 12.34C36.0741 11.98 36.0808 11.5667 36.0808 11.1ZM45.7472 16V15.4C46.1605 15.4 46.4472 15.3 46.6072 15.1C46.7672 14.8867 46.8605 14.6 46.8872 14.24C46.9139 13.8667 46.9272 13.44 46.9272 12.96V8.4C46.9272 8.18667 46.9272 7.97333 46.9272 7.76C46.9405 7.54667 46.9672 7.32667 47.0072 7.1C46.7672 7.11333 46.5272 7.12667 46.2872 7.14C46.0605 7.15333 45.8272 7.16667 45.5872 7.18V6.34C46.1739 6.34 46.6139 6.31333 46.9072 6.26C47.2139 6.20667 47.4405 6.14 47.5872 6.06C47.7339 5.98 47.8539 5.89333 47.9472 5.8H48.5272C48.5539 5.93333 48.5672 6.08667 48.5672 6.26C48.5805 6.43333 48.5939 6.63333 48.6072 6.86C49.0072 6.51333 49.4672 6.23333 49.9872 6.02C50.5072 5.79333 51.0272 5.68 51.5472 5.68C52.2139 5.68 52.7739 5.8 53.2272 6.04C53.6805 6.28 54.0339 6.60667 54.2872 7.02C54.7405 6.64667 55.2605 6.33333 55.8472 6.08C56.4472 5.81333 57.0339 5.68 57.6072 5.68C58.7672 5.68 59.6205 6.03333 60.1672 6.74C60.7139 7.43333 60.9739 8.57333 60.9472 10.16L60.9272 13.88C60.9272 14.1467 60.9205 14.3867 60.9072 14.6C60.9072 14.8 60.8872 15.0133 60.8472 15.24C61.0605 15.2267 61.2672 15.22 61.4672 15.22C61.6805 15.2067 61.8939 15.1933 62.1072 15.18V16H58.0272V15.4C58.4405 15.4 58.7272 15.3 58.8872 15.1C59.0472 14.8867 59.1405 14.6 59.1672 14.24C59.1939 13.8667 59.2072 13.44 59.2072 12.96V10.16C59.2072 9.01333 59.0205 8.15333 58.6472 7.58C58.2872 7.00667 57.7139 6.72667 56.9272 6.74C56.5139 6.74 56.1005 6.83333 55.6872 7.02C55.2739 7.20667 54.9139 7.44 54.6072 7.72C54.6739 7.93333 54.7205 8.16667 54.7472 8.42C54.7872 8.66 54.8072 8.91333 54.8072 9.18C54.7939 9.95333 54.7872 10.7333 54.7872 11.52C54.7872 12.3067 54.7805 13.0933 54.7672 13.88C54.7672 14.1467 54.7605 14.3867 54.7472 14.6C54.7472 14.8 54.7272 15.0133 54.6872 15.24C54.9005 15.2267 55.1072 15.22 55.3072 15.22C55.5205 15.2067 55.7339 15.1933 55.9472 15.18V16H51.8672V15.4C52.2805 15.4 52.5605 15.3 52.7072 15.1C52.8672 14.8867 52.9605 14.6 52.9872 14.24C53.0272 13.8667 53.0472 13.44 53.0472 12.96L53.0672 10.16C53.0805 9.01333 52.9139 8.14667 52.5672 7.56C52.2205 6.97333 51.6539 6.68667 50.8672 6.7C50.4539 6.7 50.0472 6.79333 49.6472 6.98C49.2472 7.15333 48.9072 7.38 48.6272 7.66C48.6272 7.82 48.6272 7.99333 48.6272 8.18C48.6405 8.35333 48.6472 8.54 48.6472 8.74V13.88C48.6472 14.1467 48.6405 14.3867 48.6272 14.6C48.6272 14.8 48.6072 15.0133 48.5672 15.24C48.7805 15.2267 48.9872 15.22 49.1872 15.22C49.4005 15.2067 49.6139 15.1933 49.8272 15.18V16H45.7472ZM69.6983 16C69.6583 15.7733 69.6316 15.5733 69.6183 15.4C69.6049 15.2267 69.5849 15.0467 69.5583 14.86C69.1049 15.3133 68.6116 15.6733 68.0783 15.94C67.5583 16.1933 67.0049 16.32 66.4183 16.32C65.4049 16.32 64.6516 16.0933 64.1583 15.64C63.6649 15.1733 63.4183 14.6067 63.4183 13.94C63.4183 13.3267 63.6049 12.8 63.9783 12.36C64.3649 11.9067 64.8583 11.54 65.4583 11.26C66.0716 10.9667 66.7316 10.7533 67.4383 10.62C68.1583 10.4733 68.8516 10.4067 69.5183 10.42V9.18C69.5183 8.71333 69.4783 8.27333 69.3983 7.86C69.3183 7.44667 69.1449 7.10667 68.8783 6.84C68.6116 6.57333 68.1849 6.43333 67.5983 6.42C67.2116 6.40667 66.8116 6.48 66.3983 6.64C65.9983 6.8 65.7049 7.07333 65.5183 7.46C65.6249 7.56667 65.6916 7.69333 65.7183 7.84C65.7583 7.97333 65.7783 8.1 65.7783 8.22C65.7783 8.38 65.7116 8.56667 65.5783 8.78C65.4449 8.98 65.2116 9.07333 64.8783 9.06C64.5983 9.06 64.3849 8.96667 64.2383 8.78C64.0916 8.58 64.0183 8.34667 64.0183 8.08C64.0183 7.62667 64.1849 7.22 64.5183 6.86C64.8649 6.5 65.3383 6.21333 65.9383 6C66.5383 5.78667 67.2183 5.68 67.9783 5.68C69.0983 5.68 69.9249 5.98 70.4583 6.58C70.9916 7.16667 71.2516 8.1 71.2383 9.38C71.2383 9.87333 71.2383 10.3733 71.2383 10.88C71.2383 11.3733 71.2316 11.8733 71.2183 12.38C71.2183 12.8733 71.2183 13.3733 71.2183 13.88C71.2183 14.0933 71.2116 14.3067 71.1983 14.52C71.1849 14.7333 71.1649 14.9733 71.1383 15.24C71.3783 15.2267 71.6116 15.2133 71.8383 15.2C72.0783 15.1867 72.3183 15.1733 72.5583 15.16V16H69.6983ZM69.5183 11.1C69.0649 11.1133 68.5849 11.1733 68.0783 11.28C67.5849 11.3733 67.1249 11.52 66.6983 11.72C66.2849 11.92 65.9449 12.1867 65.6783 12.52C65.4249 12.84 65.3049 13.2333 65.3183 13.7C65.3449 14.1933 65.5049 14.5667 65.7983 14.82C66.1049 15.06 66.4649 15.18 66.8783 15.18C67.4249 15.18 67.8983 15.08 68.2983 14.88C68.7116 14.6667 69.1183 14.3733 69.5183 14C69.5049 13.8533 69.4983 13.6933 69.4983 13.52C69.4983 13.3467 69.4983 13.1667 69.4983 12.98C69.4983 12.9133 69.4983 12.7 69.4983 12.34C69.5116 11.98 69.5183 11.5667 69.5183 11.1ZM73.9308 15.4C74.3441 15.4 74.6308 15.3 74.7908 15.1C74.9508 14.8867 75.0441 14.6 75.0708 14.24C75.0974 13.8667 75.1108 13.44 75.1108 12.96V8.4C75.1108 8.18667 75.1174 7.98667 75.1308 7.8C75.1441 7.6 75.1641 7.36667 75.1908 7.1C74.9508 7.11333 74.7108 7.12667 74.4708 7.14C74.2441 7.15333 74.0108 7.16667 73.7708 7.18V6.34C74.3574 6.34 74.8108 6.31333 75.1308 6.26C75.4508 6.20667 75.6908 6.14 75.8508 6.06C76.0241 5.98 76.1574 5.89333 76.2508 5.8H76.8308V13.88C76.8308 14.1467 76.8241 14.3867 76.8108 14.6C76.8108 14.8 76.7908 15.0133 76.7508 15.24C76.9641 15.2267 77.1708 15.22 77.3708 15.22C77.5841 15.2067 77.7974 15.1933 78.0108 15.18V16H73.9308V15.4ZM75.8508 3.82C75.5708 3.82 75.3241 3.70667 75.1108 3.48C74.8974 3.25333 74.7908 2.97333 74.7908 2.64C74.7908 2.30667 74.8974 2.02667 75.1108 1.8C75.3374 1.56 75.5908 1.44 75.8708 1.44C76.1774 1.44 76.4308 1.56 76.6308 1.8C76.8441 2.02667 76.9508 2.30667 76.9508 2.64C76.9508 2.97333 76.8374 3.25333 76.6108 3.48C76.3974 3.70667 76.1441 3.82 75.8508 3.82ZM83.6558 16.32C82.9891 16.32 82.3958 16.2267 81.8758 16.04C81.3558 15.8667 80.9291 15.6667 80.5958 15.44L80.6758 16.14H79.8358L79.7158 12.7H80.3358C80.3624 13.2467 80.5158 13.74 80.7958 14.18C81.0758 14.6067 81.4358 14.94 81.8758 15.18C82.3158 15.42 82.7891 15.54 83.2958 15.54C83.6424 15.54 83.9824 15.4867 84.3158 15.38C84.6491 15.26 84.9291 15.0867 85.1558 14.86C85.3824 14.62 85.4958 14.32 85.4958 13.96C85.4958 13.5867 85.3824 13.28 85.1558 13.04C84.9424 12.7867 84.6558 12.5667 84.2958 12.38C83.9358 12.1933 83.5491 12.02 83.1358 11.86C82.7358 11.7 82.3358 11.5333 81.9358 11.36C81.5358 11.1867 81.1624 10.98 80.8158 10.74C80.4824 10.5 80.2158 10.2067 80.0158 9.86C79.8158 9.51333 79.7158 9.08667 79.7158 8.58C79.7158 8.3 79.7691 7.99333 79.8758 7.66C79.9824 7.32667 80.1624 7.01333 80.4158 6.72C80.6691 6.41333 81.0158 6.16667 81.4558 5.98C81.8958 5.78 82.4558 5.68 83.1358 5.68C83.4958 5.68 83.8958 5.74 84.3358 5.86C84.7758 5.98 85.2024 6.20667 85.6158 6.54L85.5758 5.78H86.4158V9.28H85.7758C85.7491 8.81333 85.6424 8.36667 85.4558 7.94C85.2691 7.5 84.9958 7.14 84.6358 6.86C84.2758 6.56667 83.8091 6.42 83.2358 6.42C82.6224 6.42 82.1424 6.57333 81.7958 6.88C81.4491 7.18667 81.2758 7.54 81.2758 7.94C81.2758 8.35333 81.4024 8.7 81.6558 8.98C81.9224 9.24667 82.2624 9.48 82.6758 9.68C83.0891 9.88 83.5291 10.0733 83.9958 10.26C84.5024 10.4733 84.9958 10.7067 85.4758 10.96C85.9558 11.2133 86.3491 11.5333 86.6558 11.92C86.9624 12.2933 87.1158 12.78 87.1158 13.38C87.1158 14.0467 86.9424 14.6 86.5958 15.04C86.2624 15.48 85.8291 15.8 85.2958 16C84.7758 16.2133 84.2291 16.32 83.6558 16.32ZM90.3736 16.32C90.0669 16.32 89.7936 16.2 89.5536 15.96C89.3269 15.7067 89.2136 15.4 89.2136 15.04C89.2136 14.68 89.3336 14.3733 89.5736 14.12C89.8136 13.8667 90.0869 13.74 90.3936 13.74C90.7269 13.74 91.0003 13.8667 91.2136 14.12C91.4403 14.3733 91.5536 14.68 91.5536 15.04C91.5536 15.4 91.4336 15.7067 91.1936 15.96C90.9536 16.2 90.6803 16.32 90.3736 16.32ZM106.169 10.82C106.169 10.2333 106.089 9.81333 105.929 9.56C105.769 9.30667 105.516 9.15333 105.169 9.1C104.823 9.04667 104.363 9.03333 103.789 9.06L102.329 9.12V13.7C102.329 14.06 102.323 14.3667 102.309 14.62C102.309 14.8733 102.296 15.0867 102.269 15.26L106.089 15.2C106.676 15.1867 107.183 15.0933 107.609 14.92C108.036 14.7333 108.369 14.4133 108.609 13.96C108.849 13.5067 108.969 12.8867 108.969 12.1H109.649L109.529 16H99.2094V15.34C99.716 15.3133 100.063 15.2 100.249 15C100.436 14.7867 100.536 14.5 100.549 14.14C100.576 13.7667 100.589 13.3467 100.589 12.88V4.24C100.589 3.97333 100.596 3.72 100.609 3.48C100.623 3.22667 100.636 3 100.649 2.8C100.409 2.81333 100.169 2.82667 99.9294 2.84C99.6894 2.85333 99.4494 2.86667 99.2094 2.88V2H108.829L108.929 5.5H108.269C108.269 4.71333 108.149 4.12 107.909 3.72C107.669 3.30667 107.343 3.03333 106.929 2.9C106.529 2.75333 106.076 2.68667 105.569 2.7L103.849 2.74C103.356 2.75333 103.003 2.84667 102.789 3.02C102.576 3.19333 102.443 3.45333 102.389 3.8C102.349 4.13333 102.329 4.57333 102.329 5.12V8.32L106.089 8.34L105.949 6.62H106.829V10.82H106.169ZM111.031 16V15.4C111.444 15.2933 111.771 15.12 112.011 14.88C112.251 14.6267 112.557 14.26 112.931 13.78L114.931 11.18C114.744 10.9267 114.517 10.6267 114.251 10.28C113.984 9.92 113.731 9.58 113.491 9.26C113.264 8.92667 113.084 8.68 112.951 8.52C112.631 8.09333 112.397 7.74 112.251 7.46C112.104 7.18 111.997 6.95333 111.931 6.78L110.991 6.82V6H115.111V6.6C114.511 6.61333 114.171 6.75333 114.091 7.02C114.024 7.27333 114.237 7.74 114.731 8.42L115.891 10L117.711 7.8C117.911 7.56 118.077 7.36 118.211 7.2C118.344 7.02667 118.477 6.87333 118.611 6.74L117.231 6.82V6H120.511V6.6C120.151 6.70667 119.844 6.84667 119.591 7.02C119.337 7.18 119.084 7.4 118.831 7.68C118.591 7.94667 118.291 8.3 117.931 8.74L116.391 10.58L119.151 14C119.297 14.2 119.444 14.3933 119.591 14.58C119.737 14.7667 119.884 14.9867 120.031 15.24L120.931 15.18V16H117.071V15.4C117.391 15.4 117.617 15.3267 117.751 15.18C117.897 15.02 117.831 14.7667 117.551 14.42L115.451 11.82L113.771 14.12C113.571 14.3867 113.417 14.5867 113.311 14.72C113.204 14.8533 113.051 15.0267 112.851 15.24L114.391 15.18V16H111.031ZM121.856 21.1V20.5C122.27 20.5 122.556 20.3933 122.716 20.18C122.876 19.98 122.97 19.6933 122.996 19.32C123.023 18.96 123.036 18.54 123.036 18.06L123.076 8.4C123.076 8.18667 123.076 7.97333 123.076 7.76C123.09 7.54667 123.116 7.32667 123.156 7.1C122.916 7.11333 122.676 7.12667 122.436 7.14C122.21 7.15333 121.976 7.16667 121.736 7.18V6.34C122.323 6.34 122.763 6.31333 123.056 6.26C123.363 6.20667 123.583 6.14 123.716 6.06C123.863 5.98 123.983 5.89333 124.076 5.8H124.676C124.69 5.93333 124.703 6.09333 124.716 6.28C124.73 6.45333 124.743 6.65333 124.756 6.88C125.156 6.52 125.63 6.23333 126.176 6.02C126.736 5.79333 127.296 5.68 127.856 5.68C128.63 5.68 129.35 5.88 130.016 6.28C130.683 6.68 131.223 7.25333 131.636 8C132.05 8.73333 132.256 9.61333 132.256 10.64C132.256 11.7733 132.016 12.7667 131.536 13.62C131.07 14.4733 130.45 15.14 129.676 15.62C128.903 16.0867 128.063 16.32 127.156 16.32C126.69 16.32 126.256 16.26 125.856 16.14C125.47 16.0333 125.103 15.8733 124.756 15.66V18.98C124.756 19.2467 124.75 19.48 124.736 19.68C124.736 19.8933 124.716 20.1133 124.676 20.34C124.89 20.3267 125.096 20.3133 125.296 20.3C125.51 20.3 125.723 20.2933 125.936 20.28V21.1H121.856ZM127.116 15.52C127.756 15.52 128.303 15.3267 128.756 14.94C129.223 14.54 129.576 14 129.816 13.32C130.07 12.6267 130.196 11.84 130.196 10.96C130.196 10.24 130.09 9.55333 129.876 8.9C129.676 8.23333 129.35 7.69333 128.896 7.28C128.456 6.86667 127.87 6.66 127.136 6.66C126.683 6.66 126.243 6.77333 125.816 7C125.403 7.21333 125.056 7.47333 124.776 7.78C124.776 7.83333 124.776 7.91333 124.776 8.02C124.79 8.11333 124.796 8.28667 124.796 8.54C124.796 8.78 124.796 9.14667 124.796 9.64C124.796 10.12 124.79 10.7733 124.776 11.6C124.776 12.4267 124.776 13.4733 124.776 14.74C125.11 14.9933 125.47 15.1867 125.856 15.32C126.256 15.4533 126.676 15.52 127.116 15.52ZM138.81 16.32C137.89 16.32 137.057 16.1067 136.31 15.68C135.577 15.24 134.997 14.6267 134.57 13.84C134.143 13.04 133.93 12.1 133.93 11.02C133.93 10.0867 134.137 9.21333 134.55 8.4C134.977 7.58667 135.57 6.93333 136.33 6.44C137.09 5.93333 137.97 5.68 138.97 5.68C139.53 5.68 140.05 5.77333 140.53 5.96C141.023 6.13333 141.457 6.40667 141.83 6.78C142.203 7.14 142.497 7.6 142.71 8.16C142.923 8.70667 143.03 9.35333 143.03 10.1L135.99 10.22C135.99 11.2333 136.097 12.1267 136.31 12.9C136.537 13.66 136.897 14.2533 137.39 14.68C137.883 15.0933 138.517 15.3 139.29 15.3C139.703 15.3 140.123 15.2267 140.55 15.08C140.99 14.9333 141.397 14.7333 141.77 14.48C142.143 14.2267 142.443 13.9467 142.67 13.64L143.15 14.04C142.79 14.6 142.357 15.0467 141.85 15.38C141.343 15.7133 140.823 15.9533 140.29 16.1C139.757 16.2467 139.263 16.32 138.81 16.32ZM136.05 9.38H141.15C141.15 8.9 141.077 8.44 140.93 8C140.797 7.54667 140.57 7.18 140.25 6.9C139.93 6.60667 139.51 6.46 138.99 6.46C138.217 6.46 137.57 6.69333 137.05 7.16C136.543 7.61333 136.21 8.35333 136.05 9.38ZM144.81 15.4C145.223 15.4 145.51 15.3 145.67 15.1C145.83 14.8867 145.923 14.6 145.95 14.24C145.976 13.8667 145.99 13.44 145.99 12.96V8.4C145.99 8.18667 145.99 7.97333 145.99 7.76C146.003 7.54667 146.03 7.32667 146.07 7.1C145.83 7.11333 145.59 7.12667 145.35 7.14C145.123 7.14 144.89 7.14667 144.65 7.16V6.34H145.27C145.843 6.34 146.236 6.28667 146.45 6.18C146.676 6.06 146.863 5.93333 147.01 5.8H147.59C147.616 6.01333 147.636 6.28 147.65 6.6C147.663 6.90667 147.676 7.3 147.69 7.78C147.89 7.44667 148.163 7.12 148.51 6.8C148.856 6.48 149.243 6.21333 149.67 6C150.11 5.78667 150.57 5.68 151.05 5.68C151.423 5.68 151.75 5.78 152.03 5.98C152.31 6.18 152.45 6.5 152.45 6.94C152.45 7.04667 152.416 7.18 152.35 7.34C152.283 7.48667 152.176 7.62 152.03 7.74C151.883 7.84667 151.69 7.9 151.45 7.9C151.156 7.88667 150.923 7.77333 150.75 7.56C150.576 7.33333 150.51 7.07333 150.55 6.78C150.216 6.76667 149.87 6.85333 149.51 7.04C149.163 7.22667 148.836 7.48667 148.53 7.82C148.223 8.14 147.95 8.52 147.71 8.96L147.73 13.88C147.73 14.1467 147.723 14.3867 147.71 14.6C147.71 14.8 147.69 15.0133 147.65 15.24C147.863 15.2267 148.07 15.22 148.27 15.22C148.483 15.2067 148.696 15.1933 148.91 15.18V16H144.81V15.4ZM153.462 15.4C153.875 15.4 154.162 15.3 154.322 15.1C154.482 14.8867 154.575 14.6 154.602 14.24C154.629 13.8667 154.642 13.44 154.642 12.96V8.4C154.642 8.18667 154.649 7.98667 154.662 7.8C154.675 7.6 154.695 7.36667 154.722 7.1C154.482 7.11333 154.242 7.12667 154.002 7.14C153.775 7.15333 153.542 7.16667 153.302 7.18V6.34C153.889 6.34 154.342 6.31333 154.662 6.26C154.982 6.20667 155.222 6.14 155.382 6.06C155.555 5.98 155.689 5.89333 155.782 5.8H156.362V13.88C156.362 14.1467 156.355 14.3867 156.342 14.6C156.342 14.8 156.322 15.0133 156.282 15.24C156.495 15.2267 156.702 15.22 156.902 15.22C157.115 15.2067 157.329 15.1933 157.542 15.18V16H153.462V15.4ZM155.382 3.82C155.102 3.82 154.855 3.70667 154.642 3.48C154.429 3.25333 154.322 2.97333 154.322 2.64C154.322 2.30667 154.429 2.02667 154.642 1.8C154.869 1.56 155.122 1.44 155.402 1.44C155.709 1.44 155.962 1.56 156.162 1.8C156.375 2.02667 156.482 2.30667 156.482 2.64C156.482 2.97333 156.369 3.25333 156.142 3.48C155.929 3.70667 155.675 3.82 155.382 3.82ZM159.087 16V15.4C159.5 15.4 159.787 15.3 159.947 15.1C160.107 14.8867 160.2 14.6 160.227 14.24C160.254 13.8667 160.267 13.44 160.267 12.96V8.4C160.267 8.18667 160.267 7.97333 160.267 7.76C160.28 7.54667 160.307 7.32667 160.347 7.1C160.107 7.11333 159.867 7.12667 159.627 7.14C159.4 7.15333 159.167 7.16667 158.927 7.18V6.34C159.514 6.34 159.954 6.31333 160.247 6.26C160.554 6.20667 160.78 6.14 160.927 6.06C161.074 5.98 161.194 5.89333 161.287 5.8H161.867C161.894 5.93333 161.907 6.08667 161.907 6.26C161.92 6.43333 161.934 6.63333 161.947 6.86C162.347 6.51333 162.807 6.23333 163.327 6.02C163.847 5.79333 164.367 5.68 164.887 5.68C165.554 5.68 166.114 5.8 166.567 6.04C167.02 6.28 167.374 6.60667 167.627 7.02C168.08 6.64667 168.6 6.33333 169.187 6.08C169.787 5.81333 170.374 5.68 170.947 5.68C172.107 5.68 172.96 6.03333 173.507 6.74C174.054 7.43333 174.314 8.57333 174.287 10.16L174.267 13.88C174.267 14.1467 174.26 14.3867 174.247 14.6C174.247 14.8 174.227 15.0133 174.187 15.24C174.4 15.2267 174.607 15.22 174.807 15.22C175.02 15.2067 175.234 15.1933 175.447 15.18V16H171.367V15.4C171.78 15.4 172.067 15.3 172.227 15.1C172.387 14.8867 172.48 14.6 172.507 14.24C172.534 13.8667 172.547 13.44 172.547 12.96V10.16C172.547 9.01333 172.36 8.15333 171.987 7.58C171.627 7.00667 171.054 6.72667 170.267 6.74C169.854 6.74 169.44 6.83333 169.027 7.02C168.614 7.20667 168.254 7.44 167.947 7.72C168.014 7.93333 168.06 8.16667 168.087 8.42C168.127 8.66 168.147 8.91333 168.147 9.18C168.134 9.95333 168.127 10.7333 168.127 11.52C168.127 12.3067 168.12 13.0933 168.107 13.88C168.107 14.1467 168.1 14.3867 168.087 14.6C168.087 14.8 168.067 15.0133 168.027 15.24C168.24 15.2267 168.447 15.22 168.647 15.22C168.86 15.2067 169.074 15.1933 169.287 15.18V16H165.207V15.4C165.62 15.4 165.9 15.3 166.047 15.1C166.207 14.8867 166.3 14.6 166.327 14.24C166.367 13.8667 166.387 13.44 166.387 12.96L166.407 10.16C166.42 9.01333 166.254 8.14667 165.907 7.56C165.56 6.97333 164.994 6.68667 164.207 6.7C163.794 6.7 163.387 6.79333 162.987 6.98C162.587 7.15333 162.247 7.38 161.967 7.66C161.967 7.82 161.967 7.99333 161.967 8.18C161.98 8.35333 161.987 8.54 161.987 8.74V13.88C161.987 14.1467 161.98 14.3867 161.967 14.6C161.967 14.8 161.947 15.0133 161.907 15.24C162.12 15.2267 162.327 15.22 162.527 15.22C162.74 15.2067 162.954 15.1933 163.167 15.18V16H159.087ZM181.798 16.32C180.878 16.32 180.045 16.1067 179.298 15.68C178.565 15.24 177.985 14.6267 177.558 13.84C177.131 13.04 176.918 12.1 176.918 11.02C176.918 10.0867 177.125 9.21333 177.538 8.4C177.965 7.58667 178.558 6.93333 179.318 6.44C180.078 5.93333 180.958 5.68 181.958 5.68C182.518 5.68 183.038 5.77333 183.518 5.96C184.011 6.13333 184.445 6.40667 184.818 6.78C185.191 7.14 185.485 7.6 185.698 8.16C185.911 8.70667 186.018 9.35333 186.018 10.1L178.978 10.22C178.978 11.2333 179.085 12.1267 179.298 12.9C179.525 13.66 179.885 14.2533 180.378 14.68C180.871 15.0933 181.505 15.3 182.278 15.3C182.691 15.3 183.111 15.2267 183.538 15.08C183.978 14.9333 184.385 14.7333 184.758 14.48C185.131 14.2267 185.431 13.9467 185.658 13.64L186.138 14.04C185.778 14.6 185.345 15.0467 184.838 15.38C184.331 15.7133 183.811 15.9533 183.278 16.1C182.745 16.2467 182.251 16.32 181.798 16.32ZM179.038 9.38H184.138C184.138 8.9 184.065 8.44 183.918 8C183.785 7.54667 183.558 7.18 183.238 6.9C182.918 6.60667 182.498 6.46 181.978 6.46C181.205 6.46 180.558 6.69333 180.038 7.16C179.531 7.61333 179.198 8.35333 179.038 9.38ZM187.798 16V15.4C188.211 15.4 188.498 15.3 188.658 15.1C188.818 14.8867 188.911 14.6 188.938 14.24C188.965 13.8667 188.978 13.44 188.978 12.96L188.998 8.4C188.998 8.18667 188.998 7.97333 188.998 7.76C189.011 7.54667 189.038 7.32667 189.078 7.1C188.838 7.11333 188.598 7.12667 188.358 7.14C188.131 7.15333 187.898 7.16667 187.658 7.18V6.34C188.245 6.34 188.685 6.31333 188.978 6.26C189.285 6.20667 189.511 6.14 189.658 6.06C189.805 5.98 189.925 5.89333 190.018 5.8H190.598C190.611 5.89333 190.618 6 190.618 6.12C190.631 6.24 190.645 6.37333 190.658 6.52C190.671 6.66667 190.678 6.83333 190.678 7.02C190.971 6.76667 191.291 6.54 191.638 6.34C191.998 6.14 192.371 5.98 192.758 5.86C193.158 5.74 193.551 5.68 193.938 5.68C195.098 5.68 195.945 6.04667 196.478 6.78C197.011 7.5 197.278 8.62667 197.278 10.16V13.88C197.278 14.1467 197.271 14.3867 197.258 14.6C197.258 14.8 197.238 15.0133 197.198 15.24C197.411 15.2267 197.618 15.22 197.818 15.22C198.031 15.2067 198.245 15.1933 198.458 15.18V16H194.378V15.4C194.791 15.4 195.078 15.3 195.238 15.1C195.398 14.8867 195.491 14.6 195.518 14.24C195.545 13.8667 195.558 13.44 195.558 12.96V10.16C195.545 9.01333 195.351 8.14667 194.978 7.56C194.618 6.97333 194.045 6.68667 193.258 6.7C192.778 6.71333 192.305 6.84 191.838 7.08C191.385 7.32 191.005 7.62667 190.698 8C190.711 8.10667 190.718 8.22667 190.718 8.36C190.718 8.49333 190.718 8.63333 190.718 8.78L190.698 13.88C190.698 14.1467 190.691 14.3867 190.678 14.6C190.678 14.8 190.658 15.0133 190.618 15.24C190.831 15.2267 191.038 15.22 191.238 15.22C191.451 15.2067 191.665 15.1933 191.878 15.18V16H187.798ZM203.531 16.32C203.224 16.32 202.911 16.2733 202.591 16.18C202.271 16.1 201.971 15.9333 201.691 15.68C201.424 15.4267 201.211 15.06 201.051 14.58C200.891 14.0867 200.811 13.44 200.811 12.64L200.851 6.84L199.311 6.86V6C199.657 5.98667 200.011 5.86 200.371 5.62C200.731 5.36667 201.051 5.02667 201.331 4.6C201.624 4.17333 201.824 3.70667 201.931 3.2H202.611V6H205.971V6.78L202.611 6.82L202.571 12.38C202.571 12.98 202.617 13.4933 202.711 13.92C202.817 14.3333 202.984 14.6467 203.211 14.86C203.437 15.0733 203.731 15.18 204.091 15.18C204.464 15.18 204.811 15.0733 205.131 14.86C205.464 14.6467 205.757 14.3533 206.011 13.98L206.551 14.42C206.257 14.86 205.964 15.2067 205.671 15.46C205.391 15.7133 205.117 15.9 204.851 16.02C204.584 16.1533 204.337 16.2333 204.111 16.26C203.884 16.3 203.691 16.32 203.531 16.32ZM212.345 16.32C211.425 16.32 210.592 16.1067 209.845 15.68C209.112 15.24 208.532 14.6267 208.105 13.84C207.678 13.04 207.465 12.1 207.465 11.02C207.465 10.0867 207.672 9.21333 208.085 8.4C208.512 7.58667 209.105 6.93333 209.865 6.44C210.625 5.93333 211.505 5.68 212.505 5.68C213.065 5.68 213.585 5.77333 214.065 5.96C214.558 6.13333 214.992 6.40667 215.365 6.78C215.738 7.14 216.032 7.6 216.245 8.16C216.458 8.70667 216.565 9.35333 216.565 10.1L209.525 10.22C209.525 11.2333 209.632 12.1267 209.845 12.9C210.072 13.66 210.432 14.2533 210.925 14.68C211.418 15.0933 212.052 15.3 212.825 15.3C213.238 15.3 213.658 15.2267 214.085 15.08C214.525 14.9333 214.932 14.7333 215.305 14.48C215.678 14.2267 215.978 13.9467 216.205 13.64L216.685 14.04C216.325 14.6 215.892 15.0467 215.385 15.38C214.878 15.7133 214.358 15.9533 213.825 16.1C213.292 16.2467 212.798 16.32 212.345 16.32ZM209.585 9.38H214.685C214.685 8.9 214.612 8.44 214.465 8C214.332 7.54667 214.105 7.18 213.785 6.9C213.465 6.60667 213.045 6.46 212.525 6.46C211.752 6.46 211.105 6.69333 210.585 7.16C210.078 7.61333 209.745 8.35333 209.585 9.38ZM229.679 16C229.639 15.7733 229.612 15.5733 229.599 15.4C229.585 15.2267 229.565 15.0467 229.539 14.86C229.085 15.3133 228.592 15.6733 228.059 15.94C227.539 16.1933 226.985 16.32 226.399 16.32C225.385 16.32 224.632 16.0933 224.139 15.64C223.645 15.1733 223.399 14.6067 223.399 13.94C223.399 13.3267 223.585 12.8 223.959 12.36C224.345 11.9067 224.839 11.54 225.439 11.26C226.052 10.9667 226.712 10.7533 227.419 10.62C228.139 10.4733 228.832 10.4067 229.499 10.42V9.18C229.499 8.71333 229.459 8.27333 229.379 7.86C229.299 7.44667 229.125 7.10667 228.859 6.84C228.592 6.57333 228.165 6.43333 227.579 6.42C227.192 6.40667 226.792 6.48 226.379 6.64C225.979 6.8 225.685 7.07333 225.499 7.46C225.605 7.56667 225.672 7.69333 225.699 7.84C225.739 7.97333 225.759 8.1 225.759 8.22C225.759 8.38 225.692 8.56667 225.559 8.78C225.425 8.98 225.192 9.07333 224.859 9.06C224.579 9.06 224.365 8.96667 224.219 8.78C224.072 8.58 223.999 8.34667 223.999 8.08C223.999 7.62667 224.165 7.22 224.499 6.86C224.845 6.5 225.319 6.21333 225.919 6C226.519 5.78667 227.199 5.68 227.959 5.68C229.079 5.68 229.905 5.98 230.439 6.58C230.972 7.16667 231.232 8.1 231.219 9.38C231.219 9.87333 231.219 10.3733 231.219 10.88C231.219 11.3733 231.212 11.8733 231.199 12.38C231.199 12.8733 231.199 13.3733 231.199 13.88C231.199 14.0933 231.192 14.3067 231.179 14.52C231.165 14.7333 231.145 14.9733 231.119 15.24C231.359 15.2267 231.592 15.2133 231.819 15.2C232.059 15.1867 232.299 15.1733 232.539 15.16V16H229.679ZM229.499 11.1C229.045 11.1133 228.565 11.1733 228.059 11.28C227.565 11.3733 227.105 11.52 226.679 11.72C226.265 11.92 225.925 12.1867 225.659 12.52C225.405 12.84 225.285 13.2333 225.299 13.7C225.325 14.1933 225.485 14.5667 225.779 14.82C226.085 15.06 226.445 15.18 226.859 15.18C227.405 15.18 227.879 15.08 228.279 14.88C228.692 14.6667 229.099 14.3733 229.499 14C229.485 13.8533 229.479 13.6933 229.479 13.52C229.479 13.3467 229.479 13.1667 229.479 12.98C229.479 12.9133 229.479 12.7 229.479 12.34C229.492 11.98 229.499 11.5667 229.499 11.1ZM233.711 15.4C234.125 15.4 234.411 15.3 234.571 15.1C234.731 14.8867 234.825 14.6 234.851 14.24C234.878 13.8667 234.891 13.44 234.891 12.96V3.5C234.891 3.28667 234.891 3.08667 234.891 2.9C234.905 2.7 234.925 2.46667 234.951 2.2C234.711 2.21333 234.471 2.22667 234.231 2.24C234.005 2.25333 233.771 2.26667 233.531 2.28V1.44C234.118 1.44 234.571 1.41333 234.891 1.36C235.225 1.30667 235.471 1.24 235.631 1.16C235.805 1.08 235.938 0.993333 236.031 0.899999H236.611L236.631 13.88C236.631 14.1467 236.625 14.3867 236.611 14.6C236.598 14.8 236.571 15.0133 236.531 15.24C236.745 15.2267 236.951 15.22 237.151 15.22C237.365 15.2067 237.578 15.1933 237.791 15.18V16H233.711V15.4ZM244.2 16.32C243.28 16.32 242.447 16.1067 241.7 15.68C240.967 15.24 240.387 14.6267 239.96 13.84C239.534 13.04 239.32 12.1 239.32 11.02C239.32 10.0867 239.527 9.21333 239.94 8.4C240.367 7.58667 240.96 6.93333 241.72 6.44C242.48 5.93333 243.36 5.68 244.36 5.68C244.92 5.68 245.44 5.77333 245.92 5.96C246.414 6.13333 246.847 6.40667 247.22 6.78C247.594 7.14 247.887 7.6 248.1 8.16C248.314 8.70667 248.42 9.35333 248.42 10.1L241.38 10.22C241.38 11.2333 241.487 12.1267 241.7 12.9C241.927 13.66 242.287 14.2533 242.78 14.68C243.274 15.0933 243.907 15.3 244.68 15.3C245.094 15.3 245.514 15.2267 245.94 15.08C246.38 14.9333 246.787 14.7333 247.16 14.48C247.534 14.2267 247.834 13.9467 248.06 13.64L248.54 14.04C248.18 14.6 247.747 15.0467 247.24 15.38C246.734 15.7133 246.214 15.9533 245.68 16.1C245.147 16.2467 244.654 16.32 244.2 16.32ZM241.44 9.38H246.54C246.54 8.9 246.467 8.44 246.32 8C246.187 7.54667 245.96 7.18 245.64 6.9C245.32 6.60667 244.9 6.46 244.38 6.46C243.607 6.46 242.96 6.69333 242.44 7.16C241.934 7.61333 241.6 8.35333 241.44 9.38ZM243.02 4.4L242.46 3.94L244.14 1.24C244.34 0.946666 244.534 0.779999 244.72 0.74C244.907 0.686666 245.067 0.686666 245.2 0.74C245.334 0.793332 245.414 0.833332 245.44 0.859999C245.494 0.9 245.554 0.986666 245.62 1.12C245.687 1.25333 245.7 1.42 245.66 1.62C245.634 1.80667 245.5 2.02667 245.26 2.28L243.02 4.4ZM250.2 16V15.4C250.614 15.4 250.9 15.3 251.06 15.1C251.22 14.8867 251.314 14.6 251.34 14.24C251.367 13.8667 251.38 13.44 251.38 12.96V8.4C251.38 8.18667 251.38 7.97333 251.38 7.76C251.394 7.54667 251.42 7.32667 251.46 7.1C251.22 7.11333 250.98 7.12667 250.74 7.14C250.514 7.15333 250.28 7.16667 250.04 7.18V6.34C250.627 6.34 251.067 6.31333 251.36 6.26C251.667 6.20667 251.894 6.14 252.04 6.06C252.187 5.98 252.307 5.89333 252.4 5.8H252.98C253.007 5.93333 253.02 6.08667 253.02 6.26C253.034 6.43333 253.047 6.63333 253.06 6.86C253.46 6.51333 253.92 6.23333 254.44 6.02C254.96 5.79333 255.48 5.68 256 5.68C256.667 5.68 257.227 5.8 257.68 6.04C258.134 6.28 258.487 6.60667 258.74 7.02C259.194 6.64667 259.714 6.33333 260.3 6.08C260.9 5.81333 261.487 5.68 262.06 5.68C263.22 5.68 264.074 6.03333 264.62 6.74C265.167 7.43333 265.427 8.57333 265.4 10.16L265.38 13.88C265.38 14.1467 265.374 14.3867 265.36 14.6C265.36 14.8 265.34 15.0133 265.3 15.24C265.514 15.2267 265.72 15.22 265.92 15.22C266.134 15.2067 266.347 15.1933 266.56 15.18V16H262.48V15.4C262.894 15.4 263.18 15.3 263.34 15.1C263.5 14.8867 263.594 14.6 263.62 14.24C263.647 13.8667 263.66 13.44 263.66 12.96V10.16C263.66 9.01333 263.474 8.15333 263.1 7.58C262.74 7.00667 262.167 6.72667 261.38 6.74C260.967 6.74 260.554 6.83333 260.14 7.02C259.727 7.20667 259.367 7.44 259.06 7.72C259.127 7.93333 259.174 8.16667 259.2 8.42C259.24 8.66 259.26 8.91333 259.26 9.18C259.247 9.95333 259.24 10.7333 259.24 11.52C259.24 12.3067 259.234 13.0933 259.22 13.88C259.22 14.1467 259.214 14.3867 259.2 14.6C259.2 14.8 259.18 15.0133 259.14 15.24C259.354 15.2267 259.56 15.22 259.76 15.22C259.974 15.2067 260.187 15.1933 260.4 15.18V16H256.32V15.4C256.734 15.4 257.014 15.3 257.16 15.1C257.32 14.8867 257.414 14.6 257.44 14.24C257.48 13.8667 257.5 13.44 257.5 12.96L257.52 10.16C257.534 9.01333 257.367 8.14667 257.02 7.56C256.674 6.97333 256.107 6.68667 255.32 6.7C254.907 6.7 254.5 6.79333 254.1 6.98C253.7 7.15333 253.36 7.38 253.08 7.66C253.08 7.82 253.08 7.99333 253.08 8.18C253.094 8.35333 253.1 8.54 253.1 8.74V13.88C253.1 14.1467 253.094 14.3867 253.08 14.6C253.08 14.8 253.06 15.0133 253.02 15.24C253.234 15.2267 253.44 15.22 253.64 15.22C253.854 15.2067 254.067 15.1933 254.28 15.18V16H250.2ZM269.631 16.32C269.325 16.32 269.051 16.2 268.811 15.96C268.585 15.7067 268.471 15.4 268.471 15.04C268.471 14.68 268.591 14.3733 268.831 14.12C269.071 13.8667 269.345 13.74 269.651 13.74C269.985 13.74 270.258 13.8667 270.471 14.12C270.698 14.3733 270.811 14.68 270.811 15.04C270.811 15.4 270.691 15.7067 270.451 15.96C270.211 16.2 269.938 16.32 269.631 16.32Z" fill="#03612E"/>
</svg>
