<svg width="469" height="95" viewBox="0 0 469 95" fill="none" xmlns="http://www.w3.org/2000/svg">
<path d="M16.78 5.5C16.78 6.06 16.92 6.76 17.2 7.6L41.84 73.96L66.48 6.9C66.5733 6.71333 66.6667 6.43333 66.76 6.05999C66.8533 5.68666 66.9 5.40667 66.9 5.22C66.9 4.09999 66.4333 3.30666 65.5 2.83999C64.66 2.27999 63.8667 1.99999 63.12 1.99999V0.599996H78.38V1.99999C76.98 1.99999 75.6733 2.37333 74.46 3.12C73.34 3.86667 72.4533 5.12667 71.8 6.9L39.74 94.68L6.98 7.31999C6.42 5.91999 5.58 4.70666 4.46 3.68C3.43333 2.65333 2.12667 2.09333 0.54 1.99999V0.599996H20.42V1.99999C19.58 1.99999 18.74 2.32666 17.9 2.98C17.1533 3.54 16.78 4.38 16.78 5.5ZM88.3014 0.599996H108.321V1.99999H107.621C106.968 1.99999 106.361 2.27999 105.801 2.83999C105.241 3.30666 104.775 3.91333 104.401 4.65999C104.028 5.31333 103.701 6.10666 103.421 7.04C103.235 7.88 103.141 8.62666 103.141 9.27999V83.9C103.141 84.6467 103.235 85.4867 103.421 86.42C103.608 87.26 103.888 88.0533 104.261 88.8C104.728 89.5467 105.195 90.2 105.661 90.76C106.221 91.32 106.875 91.6 107.621 91.6H108.321V93H88.3014V91.6H89.0014C89.7481 91.6 90.4014 91.3667 90.9614 90.9C91.5214 90.34 91.9881 89.6867 92.3614 88.94C92.8281 88.1 93.1547 87.26 93.3414 86.42C93.5281 85.4867 93.6214 84.6467 93.6214 83.9V9.27999C93.6214 8.62666 93.5281 7.88 93.3414 7.04C93.1547 6.2 92.8281 5.40666 92.3614 4.65999C91.9881 3.91333 91.5214 3.30666 90.9614 2.83999C90.4014 2.27999 89.7481 1.99999 89.0014 1.99999H88.3014V0.599996ZM133.264 5.5C133.264 6.06 133.404 6.76 133.684 7.6L158.324 73.96L182.964 6.9C183.058 6.71333 183.151 6.43333 183.244 6.05999C183.338 5.68666 183.384 5.40667 183.384 5.22C183.384 4.09999 182.918 3.30666 181.984 2.83999C181.144 2.27999 180.351 1.99999 179.604 1.99999V0.599996H194.864V1.99999C193.464 1.99999 192.158 2.37333 190.944 3.12C189.824 3.86667 188.938 5.12667 188.284 6.9L156.224 94.68L123.464 7.31999C122.904 5.91999 122.064 4.70666 120.944 3.68C119.918 2.65333 118.611 2.09333 117.024 1.99999V0.599996H136.904V1.99999C136.064 1.99999 135.224 2.32666 134.384 2.98C133.638 3.54 133.264 4.38 133.264 5.5ZM204.226 91.6H204.926C205.672 91.6 206.326 91.3667 206.886 90.9C207.446 90.34 207.912 89.6867 208.286 88.94C208.752 88.1933 209.079 87.4 209.266 86.56C209.546 85.72 209.686 84.9267 209.686 84.18V9.27999C209.686 8.62666 209.546 7.88 209.266 7.04C209.079 6.2 208.752 5.40666 208.286 4.65999C207.912 3.91333 207.446 3.30666 206.886 2.83999C206.326 2.27999 205.672 1.99999 204.926 1.99999H204.226V0.599996H258.126V13.62H256.726C256.539 11.4733 255.699 9.60666 254.206 8.01999C252.712 6.34 250.379 5.5 247.206 5.5H219.066V40.92H242.306C244.452 40.92 246.226 40.2667 247.626 38.96C249.119 37.6533 249.866 36.1133 249.866 34.34H251.266V51.84H249.866C249.866 50.16 249.166 48.7133 247.766 47.5C246.366 46.2867 244.546 45.68 242.306 45.68H219.066V88.1H249.726C251.499 88.1 253.039 87.68 254.346 86.84C255.652 86 256.726 85.02 257.566 83.9C258.499 82.6867 259.152 81.4267 259.526 80.12C259.992 78.72 260.226 77.5533 260.226 76.62H261.626V93H204.226V91.6ZM291.215 91.6H291.915V93H272.175V91.6H272.875C273.528 91.6 274.135 91.32 274.695 90.76C275.255 90.2 275.722 89.5467 276.095 88.8C276.562 88.0533 276.888 87.26 277.075 86.42C277.262 85.4867 277.355 84.6467 277.355 83.9V9.27999C277.355 8.62666 277.262 7.88 277.075 7.04C276.888 6.2 276.562 5.40666 276.095 4.65999C275.722 3.91333 275.255 3.30666 274.695 2.83999C274.135 2.27999 273.528 1.99999 272.875 1.99999H272.175V0.599996H296.535C305.868 0.599996 313.055 2.42 318.095 6.05999C323.228 9.7 325.795 15.0667 325.795 22.16C325.795 25.7067 325.188 28.8333 323.975 31.54C322.855 34.1533 321.315 36.44 319.355 38.4C317.395 40.2667 315.062 41.8067 312.355 43.02C309.742 44.14 306.942 44.98 303.955 45.54L314.035 60.94C316.462 64.6733 318.935 68.36 321.455 72C323.975 75.5467 326.448 79.2333 328.875 83.06C329.528 83.9933 330.228 84.9733 330.975 86C331.815 87.0267 332.655 87.96 333.495 88.8C334.428 89.64 335.362 90.34 336.295 90.9C337.322 91.3667 338.348 91.6 339.375 91.6V93H333.355C329.622 93 326.542 92.1133 324.115 90.34C321.782 88.4733 319.822 86.3267 318.235 83.9C314.035 77.74 309.835 71.4867 305.635 65.14C301.528 58.7933 297.422 52.54 293.315 46.38C292.288 46.2867 291.168 46.1933 289.955 46.1C288.835 45.9133 287.762 45.7267 286.735 45.54V83.9C286.735 84.6467 286.828 85.4867 287.015 86.42C287.202 87.26 287.482 88.0533 287.855 88.8C288.322 89.5467 288.788 90.2 289.255 90.76C289.815 91.32 290.468 91.6 291.215 91.6ZM286.735 5.35999V40.92H287.435C288.182 41.0133 289.348 41.1067 290.935 41.2C292.615 41.2 294.668 41.2 297.095 41.2C299.055 41.2 301.108 40.92 303.255 40.36C305.495 39.7067 307.548 38.68 309.415 37.28C311.375 35.7867 312.962 33.8733 314.175 31.54C315.482 29.2067 316.135 26.2667 316.135 22.72C316.135 19.1733 315.435 16.28 314.035 14.04C312.728 11.8 310.862 10.0267 308.435 8.71999C306.102 7.41333 303.255 6.52666 299.895 6.05999C296.535 5.59333 292.848 5.35999 288.835 5.35999H286.735ZM347.78 91.6H348.48C349.227 91.6 349.88 91.3667 350.44 90.9C351 90.34 351.467 89.6867 351.84 88.94C352.307 88.1933 352.634 87.4 352.82 86.56C353.1 85.72 353.24 84.9267 353.24 84.18V9.27999C353.24 8.62666 353.1 7.88 352.82 7.04C352.634 6.2 352.307 5.40666 351.84 4.65999C351.467 3.91333 351 3.30666 350.44 2.83999C349.88 2.27999 349.227 1.99999 348.48 1.99999H347.78V0.599996H401.68V13.62H400.28C400.094 11.4733 399.254 9.60666 397.76 8.01999C396.267 6.34 393.934 5.5 390.76 5.5H362.62V40.92H385.86C388.007 40.92 389.78 40.2667 391.18 38.96C392.674 37.6533 393.42 36.1133 393.42 34.34H394.82V51.84H393.42C393.42 50.16 392.72 48.7133 391.32 47.5C389.92 46.2867 388.1 45.68 385.86 45.68H362.62V88.1H393.28C395.054 88.1 396.594 87.68 397.9 86.84C399.207 86 400.28 85.02 401.12 83.9C402.054 82.6867 402.707 81.4267 403.08 80.12C403.547 78.72 403.78 77.5533 403.78 76.62H405.18V93H347.78V91.6ZM445.13 43.72H468.93V50.44H445.13V74.24H438.27V50.44H414.33V43.72H438.27V19.78H445.13V43.72Z" fill="#2B784E"/>
</svg>
